<svg xmlns="http://www.w3.org/2000/svg" width="79" height="28"  fill="none" fill-rule="evenodd"><path d="M38.813 13.628a4.31 4.31 0 0 0 .788-.068 2.74 2.74 0 0 0 .684-.22 1.95 1.95 0 0 0 .544-.377c.15-.15.268-.334.354-.553s.129-.464.129-.736c0-.244-.035-.461-.105-.652s-.165-.352-.284-.485-.277-.253-.473-.361a3.69 3.69 0 0 0-.614-.267l-.769-.213-.455-.115-.373-.108c-.133-.042-.237-.082-.314-.12a1.9 1.9 0 0 1-.232-.136c-.078-.053-.137-.109-.176-.166s-.071-.124-.096-.199a.8.8 0 0 1-.038-.253c0-.3.11-.532.33-.696s.552-.246.996-.246c.375 0 .739.075 1.092.225s.603.306.75.469h0l.487-.881c-.697-.513-1.464-.769-2.302-.769-.353 0-.68.045-.98.136s-.561.222-.783.394-.396.39-.523.654a2.03 2.03 0 0 0-.19.888c0 .262.041.49.122.682s.212.359.391.499.387.259.621.356.531.192.891.286l.551.145.45.141c.164.056.291.111.38.164s.176.116.26.19.144.155.178.246.052.192.052.305c0 .281-.115.497-.345.647s-.557.225-.982.225c-.472 0-.93-.095-1.376-.284s-.766-.385-.963-.588h0l-.492.923c.388.297.823.524 1.308.682s.986.237 1.505.237zm6.114.028c.519 0 .98-.118 1.383-.354s.694-.546.872-.93h0l-.905-.258c-.094.228-.264.413-.511.555a1.58 1.58 0 0 1-.802.213c-.397 0-.741-.138-1.034-.415s-.454-.632-.485-1.066h4.022l.028-.384c0-.337-.06-.661-.18-.97a2.57 2.57 0 0 0-.506-.818c-.217-.236-.487-.424-.811-.565s-.677-.211-1.062-.211-.741.07-1.071.209a2.38 2.38 0 0 0-.827.565 2.63 2.63 0 0 0-.523.834c-.127.319-.19.655-.19 1.008 0 .469.106.898.319 1.289a2.44 2.44 0 0 0 .919.942 2.62 2.62 0 0 0 1.364.356zm1.523-2.953h-3.033c.028-.428.186-.78.473-1.057a1.44 1.44 0 0 1 1.036-.415c.406 0 .752.137 1.038.41s.448.627.485 1.062h0zm4.586 2.953c.516 0 .972-.118 1.369-.354s.68-.546.848-.93h0l-1.041-.305c-.078.194-.231.357-.459.49a1.43 1.43 0 0 1-.731.199c-.416 0-.77-.165-1.064-.495s-.441-.735-.441-1.216c0-.491.143-.895.429-1.212s.641-.476 1.066-.476c.25 0 .478.059.684.178s.369.283.488.492h0l1.027-.323c-.194-.384-.478-.689-.853-.914s-.816-.337-1.322-.337a2.75 2.75 0 0 0-1.073.206c-.328.138-.603.324-.825.56s-.395.511-.518.825a2.71 2.71 0 0 0-.185 1.001c0 .469.106.901.319 1.296s.52.713.921.954.855.361 1.362.361zm5.031 0c.431 0 .826-.095 1.184-.286s.648-.466.87-.825h0l.019.497c.012.169.084.305.216.41s.294.157.488.157a2.88 2.88 0 0 0 .469-.047h0v-.844c-.103-.003-.177-.031-.22-.084s-.066-.141-.066-.262h0v-3.83h-1.059v3.131a1.8 1.8 0 0 1-.616.799 1.46 1.46 0 0 1-.86.284c-.316 0-.555-.114-.717-.342s-.244-.566-.244-1.013h0V8.542h-1.055v3.07c0 .672.135 1.18.405 1.526s.666.518 1.188.518zm5.753-.094v-3.07c.131-.319.355-.57.673-.752s.682-.279 1.095-.288h0v-.947c-.044-.006-.133-.009-.267-.009-.316.019-.613.133-.893.342s-.507.486-.682.83h0V8.542h-.98v5.02h1.055zm5.125.094c.519 0 .98-.118 1.383-.354s.694-.546.872-.93h0l-.905-.258c-.094.228-.264.413-.511.555a1.58 1.58 0 0 1-.802.213c-.397 0-.741-.138-1.034-.415s-.454-.632-.485-1.066h4.022l.028-.384c0-.337-.06-.661-.18-.97a2.57 2.57 0 0 0-.506-.818c-.217-.236-.487-.424-.811-.565s-.677-.211-1.062-.211-.741.07-1.071.209a2.38 2.38 0 0 0-.827.565 2.63 2.63 0 0 0-.523.834c-.127.319-.19.655-.19 1.008 0 .469.106.898.319 1.289a2.44 2.44 0 0 0 .919.942 2.62 2.62 0 0 0 1.364.356zm1.523-2.953h-3.033c.028-.428.186-.78.473-1.057a1.44 1.44 0 0 1 1.036-.415c.406 0 .752.137 1.038.41s.448.627.485 1.062h0zM37.594 24.963v-2.372h1.842a1.91 1.91 0 0 0 .837-.187c.261-.125.48-.291.656-.497a2.34 2.34 0 0 0 .415-.713 2.36 2.36 0 0 0 .15-.83 2.23 2.23 0 0 0-.267-1.055 2.25 2.25 0 0 0-.762-.834 1.92 1.92 0 0 0-1.085-.328h0-2.859v6.816h1.073zm1.777-3.323h-1.777v-2.541h1.72a.99.99 0 0 1 .764.356c.212.238.319.541.319.909s-.096.673-.288.914-.438.361-.738.361h0zm4.698 3.417c.353 0 .698-.077 1.034-.232s.612-.371.827-.649h0l.028.291c.022.156.093.286.213.389s.287.155.499.155c.131 0 .281-.016.45-.047h0v-.844c-.1-.003-.171-.032-.213-.087s-.063-.141-.063-.26h0v-1.87c0-.65-.192-1.154-.577-1.512s-.916-.537-1.594-.537c-.709 0-1.397.222-2.062.666h0l.352.708a4.3 4.3 0 0 1 .816-.427 2.2 2.2 0 0 1 .778-.141c.391 0 .694.099.909.298s.323.474.323.827h0v.319c-.362-.134-.798-.202-1.308-.202-.634 0-1.15.146-1.547.438s-.595.677-.595 1.155c0 .444.163.815.49 1.113s.74.448 1.24.448zm.295-.773c-.319 0-.57-.087-.752-.26a.82.82 0 0 1-.274-.616c0-.262.12-.472.359-.628s.552-.234.94-.234a3.21 3.21 0 0 1 1.153.211h0v.577c0 .144-.084.3-.253.469-.138.141-.312.256-.525.347s-.428.136-.647.136zm4.666 2.859c.375 0 .693-.095.954-.284a1.51 1.51 0 0 0 .551-.734h0l2.278-6.183h-1.022l-1.359 3.947-1.538-3.947h-1.106l2.067 5.02c-.184.516-.329.852-.434 1.01s-.238.237-.401.237c-.116 0-.286-.022-.511-.066h0v.923a1.92 1.92 0 0 0 .52.075zm6.011-2.18v-2.986c.106-.35.286-.634.539-.853s.528-.328.825-.328c.597 0 .895.452.895 1.355h0v2.813h1.055v-2.977c.106-.353.284-.64.534-.86s.523-.33.82-.33c.6 0 .9.452.9 1.355h0v2.813h1.059v-3.061c0-1.366-.503-2.048-1.509-2.048a2.05 2.05 0 0 0-1.09.293c-.32.195-.587.479-.799.851-.062-.341-.218-.616-.466-.827s-.571-.316-.968-.316a2.16 2.16 0 0 0-1.106.284c-.325.189-.586.46-.783.813h0v-1.008h-.961v5.02h1.055zm10.52.094c.519 0 .98-.118 1.383-.354s.694-.546.872-.93h0l-.905-.258c-.094.228-.264.413-.511.555a1.58 1.58 0 0 1-.802.213c-.397 0-.741-.138-1.034-.415s-.454-.632-.485-1.066h4.022l.028-.384c0-.338-.06-.661-.18-.97a2.57 2.57 0 0 0-.506-.818c-.217-.236-.487-.424-.811-.565s-.677-.211-1.062-.211-.741.07-1.071.209a2.38 2.38 0 0 0-.827.565 2.63 2.63 0 0 0-.523.834c-.127.319-.19.655-.19 1.008 0 .469.106.898.319 1.289a2.44 2.44 0 0 0 .919.942 2.62 2.62 0 0 0 1.364.356zm1.523-2.953h-3.033c.028-.428.186-.78.473-1.057a1.44 1.44 0 0 1 1.036-.415c.406 0 .752.137 1.038.41s.448.627.485 1.062h0zm3.363 2.859v-2.986c.109-.334.31-.615.602-.841s.591-.34.898-.34c.297 0 .52.109.668.328s.223.561.223 1.027h0v2.813h1.059v-3.061c0-.234-.013-.448-.04-.64a2.52 2.52 0 0 0-.143-.558c-.069-.18-.159-.33-.27-.452s-.255-.219-.431-.291-.382-.108-.616-.108a2.5 2.5 0 0 0-1.205.295c-.366.197-.645.464-.839.802h0v-1.008h-.961v5.02h1.055zm6.517.075c.406 0 .844-.111 1.313-.333h0l-.22-.834c-.259.134-.5.202-.722.202-.153 0-.278-.043-.375-.129s-.15-.213-.159-.382h0v-2.803h1.092v-.816H76.8v-1.65h-1.059v1.65h-.661v.816h.661v3.141c0 .381.115.666.345.855s.523.284.879.284z" fill="#8e8e8e" fill-rule="nonzero"/><path d="M13.249 6.6l.001 1.672c0 5.551 2.176 8.931 7.769 12.057a2.81 2.81 0 0 0 2.722-.004c2.711-1.512 4.617-3.09 5.862-4.945l-.002 9.401c0 1.004-.829 1.818-1.85 1.818h0-25.9C.831 26.6 0 25.785 0 24.782h0V8.418C0 7.416.831 6.6 1.85 6.6h11.399z" fill="#aeaeb2"/><g fill-rule="nonzero"><path d="M15.163 15.401L0 15.4V9.8l13.31.001c.179 2.172.766 3.991 1.853 5.6z" fill="#7c7c80"/><path d="M8.563 2.772H4.913A.9.9 0 0 1 4 1.886.9.9 0 0 1 4.913 1h3.651a.9.9 0 0 1 .913.886.9.9 0 0 1-.913.886z" fill="#fafafa"/></g><path d="M29.324 3.535l-6.65-2.76a.98.98 0 0 0-.75 0l-6.65 2.76c-.348.144-.574.477-.574.845v3.68c0 5.062 1.932 8.021 7.127 10.919.146.081.31.121.473.121s.327-.04.473-.121c5.195-2.891 7.127-5.85 7.127-10.919v-3.68c0-.368-.226-.701-.576-.845z" fill="#7c7c80"/><path d="M21.4 12.7h-.038a.9.9 0 0 1-.711-.406l-1.8-2.745c-.275-.421-.164-.988.25-1.268a.89.89 0 0 1 1.248.254l1.118 1.703 2.83-3.597c.311-.393.879-.456 1.266-.143s.45.891.14 1.286l-3.601 4.574a.9.9 0 0 1-.702.34z" fill="#fafafa" fill-rule="nonzero"/></svg>